STARTFONT 2.1
COMMENT This font is still under development.
COMMENT You can use, copy, modify, distribute this file for free.
COMMENT
COMMENT 12x24 SiSheng font, IM internal use only
COMMENT 94.9.14 all glyphs redesigned by Takahashi N. <ntakahas@etl.go.jp>
COMMENT 94.10.17 CHARSET_REGISTRY changed from "Sisheng_cWnn" to "OMRON_UDC_ZH"
FONT -ETL-Fixed-Medium-R-Normal--24-240-72-72-C-120-OMRON_UDC_ZH-0
SIZE 24 72 72
FONTBOUNDINGBOX 12 24 0 -2
STARTPROPERTIES 19
FONTNAME_REGISTRY ""
FOUNDRY "ETL"
FAMILY_NAME "Fixed"
WEIGHT_NAME "Medium"
SLANT "R"
SETWIDTH_NAME "Normal"
ADD_STYLE_NAME ""
PIXEL_SIZE 24
POINT_SIZE 240
RESOLUTION_X 72
RESOLUTION_Y 72
SPACING "C"
AVERAGE_WIDTH 120
CHARSET_REGISTRY "OMRON_UDC_ZH"
CHARSET_ENCODING "0"
DEFAULT_CHAR 32 
FONT_DESCENT 2
FONT_ASCENT 22
_MULE_BASELINE_OFFSET -3
ENDPROPERTIES
CHARS 74
STARTCHAR 0020
ENCODING 32
SWIDTH 500 0
DWIDTH 12 0
BBX 12 24 0 -2
BITMAP
0000
0000
0000
0000
0000
0000
0000
0000
0000
0000
0000
0000
0000
0000
0000
0000
0000
0000
0000
0000
0000
0000
0000
0000
ENDCHAR
STARTCHAR 0021
ENCODING 33
SWIDTH 500 0
DWIDTH 12 0
BBX 12 24 0 -2
BITMAP
0000
0000
0000
0000
1fc0
1fc0
0000
0000
0780
0fc0
1860
0060
07e0
1fe0
3060
30e0
31e0
3f60
1e60
0000
0000
0000
0000
0000
ENDCHAR
STARTCHAR 0022
ENCODING 34
SWIDTH 500 0
DWIDTH 12 0
BBX 12 24 0 -2
BITMAP
0000
0000
0000
0180
0380
0600
0000
0000
0780
0fc0
1860
0060
07e0
1fe0
3060
30e0
31e0
3f60
1e60
0000
0000
0000
0000
0000
ENDCHAR
STARTCHAR 0023
ENCODING 35
SWIDTH 500 0
DWIDTH 12 0
BBX 12 24 0 -2
BITMAP
0000
0000
0000
18c0
0f80
0700
0000
0000
0780
0fc0
1860
0060
07e0
1fe0
3060
30e0
31e0
3f60
1e60
0000
0000
0000
0000
0000
ENDCHAR
STARTCHAR 0024
ENCODING 36
SWIDTH 500 0
DWIDTH 12 0
BBX 12 24 0 -2
BITMAP
0000
0000
0000
0600
0700
0180
0000
0000
0780
0fc0
1860
0060
07e0
1fe0
3060
30e0
31e0
3f60
1e60
0000
0000
0000
0000
0000
ENDCHAR
STARTCHAR 0025
ENCODING 37
SWIDTH 500 0
DWIDTH 12 0
BBX 12 24 0 -2
BITMAP
0000
0000
0000
0000
0000
1fc0
1fc0
0000
0000
0f80
1fc0
3860
3060
3fe0
3fe0
3000
3060
1fe0
0fc0
0000
0000
0000
0000
0000
ENDCHAR
STARTCHAR 0026
ENCODING 38
SWIDTH 500 0
DWIDTH 12 0
BBX 12 24 0 -2
BITMAP
0000
0000
0000
0000
0300
0700
0c00
0000
0000
0f80
1fc0
3860
3060
3fe0
3fe0
3000
3060
1fe0
0fc0
0000
0000
0000
0000
0000
ENDCHAR
STARTCHAR 0027
ENCODING 39
SWIDTH 500 0
DWIDTH 12 0
BBX 12 24 0 -2
BITMAP
0000
0000
0000
0000
18c0
0f80
0700
0000
0000
0f80
1fc0
3860
3060
3fe0
3fe0
3000
3060
1fe0
0fc0
0000
0000
0000
0000
0000
ENDCHAR
STARTCHAR 0028
ENCODING 40
SWIDTH 500 0
DWIDTH 12 0
BBX 12 24 0 -2
BITMAP
0000
0000
0000
0000
0600
0700
0180
0000
0000
0f80
1fc0
3860
3060
3fe0
3fe0
3000
3060
1fe0
0fc0
0000
0000
0000
0000
0000
ENDCHAR
STARTCHAR 0029
ENCODING 41
SWIDTH 500 0
DWIDTH 12 0
BBX 12 24 0 -2
BITMAP
0000
0000
0000
0000
0000
1f80
1f80
0000
0000
0600
0600
0600
0600
0600
0600
0600
0600
0600
0600
0000
0000
0000
0000
0000
ENDCHAR
STARTCHAR 002a
ENCODING 42
SWIDTH 500 0
DWIDTH 12 0
BBX 12 24 0 -2
BITMAP
0000
0000
0000
0000
0300
0700
0c00
0000
0000
0600
0600
0600
0600
0600
0600
0600
0600
0600
0600
0000
0000
0000
0000
0000
ENDCHAR
STARTCHAR 002b
ENCODING 43
SWIDTH 500 0
DWIDTH 12 0
BBX 12 24 0 -2
BITMAP
0000
0000
0000
0000
1980
0f00
0600
0000
0000
0600
0600
0600
0600
0600
0600
0600
0600
0600
0600
0000
0000
0000
0000
0000
ENDCHAR
STARTCHAR 002c
ENCODING 44
SWIDTH 500 0
DWIDTH 12 0
BBX 12 24 0 -2
BITMAP
0000
0000
0000
0000
0c00
0e00
0300
0000
0000
0600
0600
0600
0600
0600
0600
0600
0600
0600
0600
0000
0000
0000
0000
0000
ENDCHAR
STARTCHAR 002d
ENCODING 45
SWIDTH 500 0
DWIDTH 12 0
BBX 12 24 0 -2
BITMAP
0000
0000
0000
0000
0000
1fc0
1fc0
0000
0000
0f80
1fc0
38e0
3060
3060
3060
3060
38e0
1fc0
0f80
0000
0000
0000
0000
0000
ENDCHAR
STARTCHAR 002e
ENCODING 46
SWIDTH 500 0
DWIDTH 12 0
BBX 12 24 0 -2
BITMAP
0000
0000
0000
0000
0300
0700
0c00
0000
0000
0f80
1fc0
38e0
3060
3060
3060
3060
38e0
1fc0
0f80
0000
0000
0000
0000
0000
ENDCHAR
STARTCHAR 002f
ENCODING 47
SWIDTH 500 0
DWIDTH 12 0
BBX 12 24 0 -2
BITMAP
0000
0000
0000
0000
18c0
0f80
0700
0000
0000
0f80
1fc0
38e0
3060
3060
3060
3060
38e0
1fc0
0f80
0000
0000
0000
0000
0000
ENDCHAR
STARTCHAR 0030
ENCODING 48
SWIDTH 500 0
DWIDTH 12 0
BBX 12 24 0 -2
BITMAP
0000
0000
0000
0000
0600
0700
0180
0000
0000
0f80
1fc0
38e0
3060
3060
3060
3060
38e0
1fc0
0f80
0000
0000
0000
0000
0000
ENDCHAR
STARTCHAR 0031
ENCODING 49
SWIDTH 500 0
DWIDTH 12 0
BBX 12 24 0 -2
BITMAP
0000
0000
0000
0000
0000
1fc0
1fc0
0000
0000
3060
3060
3060
3060
3060
3060
30e0
39e0
1f60
0e60
0000
0000
0000
0000
0000
ENDCHAR
STARTCHAR 0032
ENCODING 50
SWIDTH 500 0
DWIDTH 12 0
BBX 12 24 0 -2
BITMAP
0000
0000
0000
0000
0300
0700
0c00
0000
0000
3060
3060
3060
3060
3060
3060
30e0
39e0
1f60
0e60
0000
0000
0000
0000
0000
ENDCHAR
STARTCHAR 0033
ENCODING 51
SWIDTH 500 0
DWIDTH 12 0
BBX 12 24 0 -2
BITMAP
0000
0000
0000
0000
18c0
0f80
0700
0000
0000
3060
3060
3060
3060
3060
3060
30e0
39e0
1f60
0e60
0000
0000
0000
0000
0000
ENDCHAR
STARTCHAR 0034
ENCODING 52
SWIDTH 500 0
DWIDTH 12 0
BBX 12 24 0 -2
BITMAP
0000
0000
0000
0000
0600
0700
0180
0000
0000
3060
3060
3060
3060
3060
3060
30e0
39e0
1f60
0e60
0000
0000
0000
0000
0000
ENDCHAR
STARTCHAR 0035
ENCODING 53
SWIDTH 500 0
DWIDTH 12 0
BBX 12 24 0 -2
BITMAP
0000
1fc0
1fc0
0000
0000
18c0
18c0
0000
0000
3060
3060
3060
3060
3060
3060
30e0
39e0
1f60
0e60
0000
0000
0000
0000
0000
ENDCHAR
STARTCHAR 0036
ENCODING 54
SWIDTH 500 0
DWIDTH 12 0
BBX 12 24 0 -2
BITMAP
0300
0700
0c00
0000
0000
18c0
18c0
0000
0000
3060
3060
3060
3060
3060
3060
30e0
39e0
1f60
0e60
0000
0000
0000
0000
0000
ENDCHAR
STARTCHAR 0037
ENCODING 55
SWIDTH 500 0
DWIDTH 12 0
BBX 12 24 0 -2
BITMAP
18c0
0f80
0700
0000
0000
18c0
18c0
0000
0000
3060
3060
3060
3060
3060
3060
30e0
39e0
1f60
0e60
0000
0000
0000
0000
0000
ENDCHAR
STARTCHAR 0038
ENCODING 56
SWIDTH 500 0
DWIDTH 12 0
BBX 12 24 0 -2
BITMAP
0600
0700
0180
0000
0000
18c0
18c0
0000
0000
3060
3060
3060
3060
3060
3060
30e0
39e0
1f60
0e60
0000
0000
0000
0000
0000
ENDCHAR
STARTCHAR 0039
ENCODING 57
SWIDTH 500 0
DWIDTH 12 0
BBX 12 24 0 -2
BITMAP
0000
0000
0000
0000
0000
18c0
18c0
0000
0000
3060
3060
3060
3060
3060
3060
30e0
39e0
1f60
0e60
0000
0000
0000
0000
0000
ENDCHAR
STARTCHAR 003a
ENCODING 58
SWIDTH 500 0
DWIDTH 12 0
BBX 12 24 0 -2
BITMAP
0000
0000
0000
0000
0700
0f80
18c0
0000
0000
0f80
1fc0
3860
3060
3fe0
3fe0
3000
3060
1fe0
0fc0
0000
0000
0000
0000
0000
ENDCHAR
STARTCHAR 003b
ENCODING 59
SWIDTH 500 0
DWIDTH 12 0
BBX 12 24 0 -2
BITMAP
0000
0000
0000
0000
0000
0000
0000
0000
0000
0000
0000
0000
0000
0000
0000
0000
0000
0000
0000
0000
0000
0000
0000
0000
ENDCHAR
STARTCHAR 003c
ENCODING 60
SWIDTH 500 0
DWIDTH 12 0
BBX 12 24 0 -2
BITMAP
0000
0000
0000
0000
0300
0700
0c00
0000
6000
6dc0
7fe0
6660
6660
6660
6660
6660
6660
6660
6660
0000
0000
0000
0000
0000
ENDCHAR
STARTCHAR 003d
ENCODING 61
SWIDTH 500 0
DWIDTH 12 0
BBX 12 24 0 -2
BITMAP
0000
0000
0000
0000
0300
0700
0c00
0000
0000
3380
37c0
3c60
3860
3060
3060
3060
3060
3060
3060
0000
0000
0000
0000
0000
ENDCHAR
STARTCHAR 003e
ENCODING 62
SWIDTH 500 0
DWIDTH 12 0
BBX 12 24 0 -2
BITMAP
0000
0000
0000
0000
18c0
0f80
0700
0000
0000
3380
37c0
3c60
3860
3060
3060
3060
3060
3060
3060
0000
0000
0000
0000
0000
ENDCHAR
STARTCHAR 003f
ENCODING 63
SWIDTH 500 0
DWIDTH 12 0
BBX 12 24 0 -2
BITMAP
0000
0000
0000
0000
0600
0700
0180
0000
0000
3380
37c0
3c60
3860
3060
3060
3060
3060
3060
3060
0000
0000
0000
0000
0000
ENDCHAR
STARTCHAR 0040
ENCODING 64
SWIDTH 500 0
DWIDTH 12 0
BBX 12 24 0 -2
BITMAP
0000
0000
0000
0000
0000
0000
0000
0000
0000
0000
0000
0000
0000
0000
0000
0000
0000
0000
0000
0000
0000
0000
0000
0000
ENDCHAR
STARTCHAR 0041
ENCODING 65
SWIDTH 500 0
DWIDTH 12 0
BBX 12 24 0 -2
BITMAP
0000
0000
1fc0
1fc0
0000
0000
0000
0000
0000
0000
0000
0000
0000
0000
0000
0000
0000
0000
0000
0000
0000
0000
0000
0000
ENDCHAR
STARTCHAR 0042
ENCODING 66
SWIDTH 500 0
DWIDTH 12 0
BBX 12 24 0 -2
BITMAP
0000
0300
0700
0c00
0000
0000
0000
0000
0000
0000
0000
0000
0000
0000
0000
0000
0000
0000
0000
0000
0000
0000
0000
0000
ENDCHAR
STARTCHAR 0043
ENCODING 67
SWIDTH 500 0
DWIDTH 12 0
BBX 12 24 0 -2
BITMAP
0000
18c0
0f80
0700
0000
0000
0000
0000
0000
0000
0000
0000
0000
0000
0000
0000
0000
0000
0000
0000
0000
0000
0000
0000
ENDCHAR
STARTCHAR 0044
ENCODING 68
SWIDTH 500 0
DWIDTH 12 0
BBX 12 24 0 -2
BITMAP
0000
0c00
0e00
0300
0000
0000
0000
0000
0000
0000
0000
0000
0000
0000
0000
0000
0000
0000
0000
0000
0000
0000
0000
0000
ENDCHAR
STARTCHAR 0045
ENCODING 69
SWIDTH 500 0
DWIDTH 12 0
BBX 12 24 0 -2
BITMAP
0000
0000
0000
0000
0000
1800
1800
3000
3fe0
3fe0
0060
0060
0060
00e0
00c0
01c0
0180
0780
0700
0000
0000
0000
0000
0000
ENDCHAR
STARTCHAR 0046
ENCODING 70
SWIDTH 500 0
DWIDTH 12 0
BBX 12 24 0 -2
BITMAP
0000
0000
0000
0000
0000
1800
1800
3000
3fe0
3fe0
0060
18e0
1dc0
0f80
0700
0f80
1dc0
38c0
3000
0000
0000
0000
0000
0000
ENDCHAR
STARTCHAR 0047
ENCODING 71
SWIDTH 500 0
DWIDTH 12 0
BBX 12 24 0 -2
BITMAP
0000
0000
0000
0000
0000
0000
3fe0
3fe0
3060
3060
3060
3060
3060
3060
3060
3060
3060
3060
3060
0000
0000
0000
0000
0000
ENDCHAR
STARTCHAR 0048
ENCODING 72
SWIDTH 500 0
DWIDTH 12 0
BBX 12 24 0 -2
BITMAP
0000
0000
0000
0000
0000
0000
3fe0
3fe0
3000
3000
3000
3000
3000
3000
3000
3000
3000
3fe0
3fe0
0000
0000
0000
0000
0000
ENDCHAR
STARTCHAR 0049
ENCODING 73
SWIDTH 500 0
DWIDTH 12 0
BBX 12 24 0 -2
BITMAP
0000
0000
0000
0000
0000
1800
1800
3000
3fe0
3fe0
0660
0660
0e60
0ce0
1cc0
19c0
3980
3380
3300
0000
0000
0000
0000
0000
ENDCHAR
STARTCHAR 004a
ENCODING 74
SWIDTH 500 0
DWIDTH 12 0
BBX 12 24 0 -2
BITMAP
0000
0000
0000
0000
0000
0600
0600
0600
3fe0
3fe0
0600
0c00
0d80
1980
18c0
31c0
33e0
3f60
3c60
0000
0000
0000
0000
0000
ENDCHAR
STARTCHAR 004b
ENCODING 75
SWIDTH 500 0
DWIDTH 12 0
BBX 12 24 0 -2
BITMAP
0000
0000
0000
0000
0000
3f80
3f80
0180
0380
0600
0fc0
0fe0
0060
0060
00e0
00c0
01c0
0780
0700
0000
0000
0000
0000
0000
ENDCHAR
STARTCHAR 004c
ENCODING 76
SWIDTH 500 0
DWIDTH 12 0
BBX 12 24 0 -2
BITMAP
0000
0000
0000
0000
0000
3300
3300
3300
3fe0
3fe0
0660
0660
0660
0e60
0ce0
1cc0
19c0
3980
3180
0000
0000
0000
0000
0000
ENDCHAR
STARTCHAR 004d
ENCODING 77
SWIDTH 500 0
DWIDTH 12 0
BBX 12 24 0 -2
BITMAP
0000
0000
0000
0000
0000
0660
0660
0cc0
0cc0
1980
1980
3300
3300
1980
1980
0cc0
0cc0
0660
0660
0000
0000
0000
0000
0000
ENDCHAR
STARTCHAR 004e
ENCODING 78
SWIDTH 500 0
DWIDTH 12 0
BBX 12 24 0 -2
BITMAP
0000
0000
0000
0000
0000
3fe0
3fe0
0600
0600
0c00
0fe0
0fe0
0060
0060
0060
00c0
01c0
0780
0700
0000
0000
0000
0000
0000
ENDCHAR
STARTCHAR 004f
ENCODING 79
SWIDTH 500 0
DWIDTH 12 0
BBX 12 24 0 -2
BITMAP
0000
0000
0000
0000
0000
0fe0
0fe0
0c00
0c00
0c00
0c00
0c00
0c00
0c00
0c00
1800
1800
3000
3000
0000
0000
0000
0000
0000
ENDCHAR
STARTCHAR 0050
ENCODING 80
SWIDTH 500 0
DWIDTH 12 0
BBX 12 24 0 -2
BITMAP
0000
0000
0000
0000
0000
00c0
00c0
18c0
18c0
18c0
18c0
19c0
1bc0
1ec0
1cc0
00c0
00c0
00c0
00c0
0000
0000
0000
0000
0000
ENDCHAR
STARTCHAR 0051
ENCODING 81
SWIDTH 500 0
DWIDTH 12 0
BBX 12 24 0 -2
BITMAP
0000
0000
0000
0000
0000
00c0
01c0
0380
0700
0e00
1c00
1800
1800
1c00
0e00
0700
0380
01c0
00c0
0000
0000
0000
0000
0000
ENDCHAR
STARTCHAR 0052
ENCODING 82
SWIDTH 500 0
DWIDTH 12 0
BBX 12 24 0 -2
BITMAP
0000
0000
0000
0000
0000
3fc0
3fc0
0600
0600
0600
0600
0600
0600
0600
0600
0600
0600
0600
0600
0000
0000
0000
0000
0000
ENDCHAR
STARTCHAR 0053
ENCODING 83
SWIDTH 500 0
DWIDTH 12 0
BBX 12 24 0 -2
BITMAP
0000
0000
0000
0000
0000
0600
0600
6660
6660
6660
6660
6660
7fe0
7fe0
0600
0600
0600
7fe0
7fe0
0000
0000
0000
0000
0000
ENDCHAR
STARTCHAR 0054
ENCODING 84
SWIDTH 500 0
DWIDTH 12 0
BBX 12 24 0 -2
BITMAP
0000
0000
0000
0000
0000
0180
0780
1e00
18c0
03c0
0f00
3f00
3300
0300
0300
0300
0300
0300
0300
0000
0000
0000
0000
0000
ENDCHAR
STARTCHAR 0055
ENCODING 85
SWIDTH 500 0
DWIDTH 12 0
BBX 12 24 0 -2
BITMAP
0000
0000
0000
0000
0000
0fe0
0fe0
0060
0060
0fe0
0fe0
0c00
0c00
0c00
0c00
1c00
1800
3000
3000
0000
0000
0000
0000
0000
ENDCHAR
STARTCHAR 0056
ENCODING 86
SWIDTH 500 0
DWIDTH 12 0
BBX 12 24 0 -2
BITMAP
0000
0000
0000
0000
0000
3fe0
3fe0
3060
3060
3060
3660
3660
3360
3360
3060
3060
3060
3fe0
3fe0
0000
0000
0000
0000
0000
ENDCHAR
STARTCHAR 0057
ENCODING 87
SWIDTH 500 0
DWIDTH 12 0
BBX 12 24 0 -2
BITMAP
0000
0000
0000
0000
0000
1fc0
1fc0
18c0
18c0
18c0
18c0
1cc0
1fc0
1b80
1800
1800
1800
1800
1800
0000
0000
0000
0000
0000
ENDCHAR
STARTCHAR 0058
ENCODING 88
SWIDTH 500 0
DWIDTH 12 0
BBX 12 24 0 -2
BITMAP
0000
0000
0000
0000
0000
0600
0600
3fe0
3fe0
0c00
0c00
0fc0
0fe0
0060
00e0
01c0
0380
0700
0600
0000
0000
0000
0000
0000
ENDCHAR
STARTCHAR 0059
ENCODING 89
SWIDTH 500 0
DWIDTH 12 0
BBX 12 24 0 -2
BITMAP
0000
0000
0000
0000
0000
0600
0600
0600
0c00
0c00
0c00
1800
1980
1980
30c0
31c0
33e0
3f60
3c60
0000
0000
0000
0000
0000
ENDCHAR
STARTCHAR 005a
ENCODING 90
SWIDTH 500 0
DWIDTH 12 0
BBX 12 24 0 -2
BITMAP
0000
0000
0000
0000
0000
6060
6060
30c0
30c0
1980
1f80
0600
0600
0600
0600
0600
0600
0600
0600
0000
0000
0000
0000
0000
ENDCHAR
STARTCHAR 005b
ENCODING 91
SWIDTH 500 0
DWIDTH 12 0
BBX 12 24 0 -2
BITMAP
0000
0000
0000
0000
0000
3fe0
3fe0
0300
0300
0300
0300
0f00
1e00
3800
3000
3060
38e0
1fc0
0f80
0000
0000
0000
0000
0000
ENDCHAR
STARTCHAR 005c
ENCODING 92
SWIDTH 500 0
DWIDTH 12 0
BBX 12 24 0 -2
BITMAP
0000
0000
0000
0000
0000
0300
0300
3fe0
3fe0
0300
0300
0f00
1e00
3800
3000
3060
38e0
1fc0
0f80
0000
0000
0000
0000
0000
ENDCHAR
STARTCHAR 005d
ENCODING 93
SWIDTH 500 0
DWIDTH 12 0
BBX 12 24 0 -2
BITMAP
0000
0000
0000
0000
0000
18c0
18c0
18c0
1be0
3fe0
3ec0
18c0
18c0
18c0
18c0
1800
1800
1fe0
0fe0
0000
0000
0000
0000
0000
ENDCHAR
STARTCHAR 005e
ENCODING 94
SWIDTH 500 0
DWIDTH 12 0
BBX 12 24 0 -2
BITMAP
0000
0000
0000
0000
0000
3fe0
3fe0
1980
3300
3fe0
3fe0
0660
0660
0c60
0ce0
18c0
19c0
3180
3180
0000
0000
0000
0000
0000
ENDCHAR
STARTCHAR 005f
ENCODING 95
SWIDTH 500 0
DWIDTH 12 0
BBX 12 24 0 -2
BITMAP
0000
0000
0000
0000
0000
1e00
1e00
0600
0600
0600
0600
0600
0600
0600
0600
0300
0300
0180
0180
0000
0000
0000
0000
0000
ENDCHAR
STARTCHAR 0060
ENCODING 96
SWIDTH 500 0
DWIDTH 12 0
BBX 12 24 0 -2
BITMAP
0000
0000
0000
0000
0000
0300
0700
0e00
1c40
38c0
39c0
1f80
0f00
0e00
1cc0
39c0
37e0
3f60
3c60
0000
0000
0000
0000
0000
ENDCHAR
STARTCHAR 0061
ENCODING 97
SWIDTH 500 0
DWIDTH 12 0
BBX 12 24 0 -2
BITMAP
0000
0000
0000
0000
0000
3fe0
3fe0
0060
0060
00e0
0ce0
0fc0
0780
03c0
03e0
0760
0e00
3c00
3000
0000
0000
0000
0000
0000
ENDCHAR
STARTCHAR 0062
ENCODING 98
SWIDTH 500 0
DWIDTH 12 0
BBX 12 24 0 -2
BITMAP
0000
0000
0000
0000
0000
3fc0
3fe0
0c60
1ce0
39c0
3fe0
1fe0
0060
0060
00e0
00c0
01c0
0180
0180
0000
0000
0000
0000
0000
ENDCHAR
STARTCHAR 0063
ENCODING 99
SWIDTH 500 0
DWIDTH 12 0
BBX 12 24 0 -2
BITMAP
0000
0000
0000
0000
0000
0c00
0c00
1800
1800
3000
3fe0
3fe0
0060
0060
00e0
00c0
01c0
0180
0180
0000
0000
0000
0000
0000
ENDCHAR
STARTCHAR 0064
ENCODING 100
SWIDTH 500 0
DWIDTH 12 0
BBX 12 24 0 -2
BITMAP
0000
0000
0000
0000
0000
0300
0300
0300
3fe0
3fe0
0300
0700
0700
0f00
0f00
1b00
1b80
31e0
30e0
0000
0000
0000
0000
0000
ENDCHAR
STARTCHAR 0065
ENCODING 101
SWIDTH 500 0
DWIDTH 12 0
BBX 12 24 0 -2
BITMAP
0000
0000
0000
0000
0000
0600
0600
0600
0c00
0c00
0c00
1800
1800
1800
3000
3000
30e0
3fe0
3f00
0000
0000
0000
0000
0000
ENDCHAR
STARTCHAR 0066
ENCODING 102
SWIDTH 500 0
DWIDTH 12 0
BBX 12 24 0 -2
BITMAP
0000
0000
0000
0000
0000
1b00
1b00
1b00
1b00
1b00
1b00
1b00
1b00
1b00
1b00
3300
3300
63e0
61e0
0000
0000
0000
0000
0000
ENDCHAR
STARTCHAR 0067
ENCODING 103
SWIDTH 500 0
DWIDTH 12 0
BBX 12 24 0 -2
BITMAP
0000
0000
0000
0000
0000
0600
0600
0600
0600
0600
0600
0600
0600
0600
0600
0600
0600
0600
0600
0000
0000
0000
0000
0000
ENDCHAR
STARTCHAR 0068
ENCODING 104
SWIDTH 500 0
DWIDTH 12 0
BBX 12 24 0 -2
BITMAP
0000
0000
0000
0000
0000
0060
0060
00c0
00c0
1980
1d80
0f00
0700
0f80
0dc0
18c0
1800
3000
3000
0000
0000
0000
0000
0000
ENDCHAR
STARTCHAR 0069
ENCODING 105
SWIDTH 500 0
DWIDTH 12 0
BBX 12 24 0 -2
BITMAP
0000
0000
0000
0000
0000
3060
3060
3060
3060
3060
3060
3060
3060
3060
3060
3060
3060
3fe0
3fe0
0000
0000
0000
0000
0000
ENDCHAR
ENDFONT
